<?xml version="1.0" standalone="no"?>
<!DOCTYPE svg PUBLIC "-//W3C//DTD SVG 20010904//EN"
 "http://www.w3.org/TR/2001/REC-SVG-20010904/DTD/svg10.dtd">
<svg version="1.0" xmlns="http://www.w3.org/2000/svg"
 width="512.000000pt" height="512.000000pt" viewBox="0 0 512.000000 512.000000"
 preserveAspectRatio="xMidYMid meet">

<g transform="translate(0.000000,512.000000) scale(0.100000,-0.100000)"
fill="#000000" stroke="none">
<path d="M2758 3980 c-671 -141 -1022 -867 -717 -1483 l33 -67 -461 -463
c-318 -317 -467 -474 -478 -499 -20 -50 -19 -124 4 -173 10 -22 43 -66 74 -97
101 -102 211 -112 315 -28 26 21 240 232 476 468 l429 431 66 -33 c148 -74
293 -108 466 -108 285 0 535 103 734 303 222 221 331 525 300 834 -39 398
-288 720 -671 871 -161 63 -395 81 -570 44z m360 -256 c362 -74 622 -392 622
-759 0 -487 -452 -857 -928 -759 -407 83 -678 474 -611 883 69 431 491 723
917 635z"/>
</g>
</svg>
