<?xml version="1.0" encoding="UTF-8"?>
<!DOCTYPE svg PUBLIC "-//W3C//DTD SVG 1.0//EN" "http://www.w3.org/TR/2001/REC-SVG-20010904/DTD/svg10.dtd">
<!-- Creator: CorelDRAW 2020 (64 Bit) -->
<svg xmlns="http://www.w3.org/2000/svg" xml:space="preserve" width="124.036mm" height="124.036mm" version="1.0" style="shape-rendering:geometricPrecision; text-rendering:geometricPrecision; image-rendering:optimizeQuality; fill-rule:evenodd; clip-rule:evenodd"
viewBox="0 0 10758.99 10758.99"
 xmlns:xlink="http://www.w3.org/1999/xlink"
 xmlns:xodm="http://www.corel.com/coreldraw/odm/2003">
 <defs>
  <style type="text/css">
   <![CDATA[
    .str0 {stroke:#861388;stroke-width:244.8;stroke-miterlimit:22.9256}
    .str1 {stroke:#C8C5E2;stroke-width:6.61;stroke-miterlimit:22.9256}
    .fil1 {fill:none}
    .fil3 {fill:none;fill-rule:nonzero}
    .fil0 {fill:#373435}
    .fil2 {fill:#FEFEFE;fill-rule:nonzero}
   ]]>
  </style>
 </defs>
 <g id="Camada_x0020_1">
  <metadata id="CorelCorpID_0Corel-Layer"/>
  <circle class="fil0" cx="5379.49" cy="5379.49" r="5379.49"/>
  <path class="fil1 str0" d="M7650.95 5536.12c45.83,-167.07 -44,-337.33 -200.63,-380.28 -156.63,-42.96 -320.74,57.65 -366.56,224.72 -91.64,334.13 88.02,674.65 401.26,760.57 313.25,85.91 641.48,-115.31 733.12,-449.45 137.46,-501.2 -132.02,-1011.98 -601.9,-1140.86 -469.88,-128.86 -962.22,172.98 -1099.68,674.18 -183.27,668.27 176.02,1349.3 802.53,1521.13 626.5,171.82 1282.96,-230.63 1466.24,-898.9 229.1,-835.34 -220.03,-1686.63 -1003.16,-1901.41 -783.13,-214.78 -1603.7,288.28 -1832.8,1123.62 -274.92,1002.41 264.05,2023.95 1203.8,2281.68 939.76,257.74 1924.44,-345.93 2199.36,-1348.34 320.74,-1169.48 -308.05,-2361.29 -1404.43,-2661.97 -1096.38,-300.69 -2245.18,403.6 -2565.92,1573.07 -366.56,1336.53 352.05,2698.6 1605.06,3042.24 1253.01,343.65 2565.93,-461.25 2932.49,-1797.78"/>
  <path class="fil2" d="M6779.16 2890.69c-101.29,328.5 -248.3,583.29 -439.47,764.38 -191.17,182.64 -393.47,304.07 -605.35,365.84 -211.87,61.77 -416.05,63.83 -612.51,6.2 -196.46,-56.06 -350.65,-167.19 -459.41,-330.27 111.24,-113.35 212.93,-275.37 301.94,-487.61 89,-213.82 167.02,-426.03 232.46,-638.21 42.04,-147.74 76.24,-297.03 104.15,-443.16 29.48,-146.13 46.44,-279.68 50.86,-399.05 4.42,-119.37 1.03,-221.46 -13.31,-309.37 -14.35,-86.34 -42.75,-144.39 -88.37,-174.12 -56.62,-28.13 -110.01,-26.43 -161.77,3.54 -51.75,29.97 -100.32,80.35 -147.26,154.28 -46.94,72.36 -90.7,158.85 -131.3,256.32 -42.16,97.48 -79.61,201.23 -115.46,311.26 -124.81,344.26 -233.87,707.33 -327.18,1087.62 -93.31,380.31 -186.67,741.77 -280.07,1082.81 -91.82,342.61 -193.17,650.68 -305.58,925.81 -110.84,275.12 -250.13,479.63 -414.71,615.1 -153.76,63.2 -312.14,168.81 -475.11,315.28 -4.68,14.15 -9.35,29.86 -15.59,47.14 -6.25,17.3 -10.92,31.44 -14.03,45.59 75.23,-66.16 155.2,-119.75 236.76,-162.34 80,-41.04 180.39,-89.97 296.48,-145.22 112.96,-48.97 247.97,-77.56 404.99,-90.51 157.03,-11.37 318.78,-18.06 482.11,-18.45 163.34,-0.4 320.39,-2.35 474.31,-2.73 153.91,-1.94 285.8,-14.82 395.69,-35.51 153.83,-31.78 295.07,-82.39 420.54,-156.51 127.04,-72.56 244.63,-156.08 354.34,-247.44 19.14,124.03 25.76,257.51 21.39,398.88 -2.8,141.35 -22.86,284.33 -58.65,428.91 -35.76,144.58 -88.83,282.92 -162.32,416.6 -71.93,132.11 -172.15,253.28 -297.54,360.38 -89.35,69.32 -186.57,130.81 -294.81,184.48 -108.24,52.1 -229.07,96.36 -364.06,129.67 -144.39,41.18 -298.27,58.84 -460.05,52.95 -160.22,-7.46 -328.3,-16.47 -499.51,-30.19 -172.8,-13.71 -350.3,-24.28 -534.07,-28.54 -183.77,-5.84 -367.49,10.31 -552.72,46.88 -108.05,130.63 -230.3,236.15 -363.6,318.15 -134.88,80.42 -271.37,138.87 -407.92,176.9 -136.55,36.45 -271.58,50.92 -403.52,46.52 -131.94,-5.96 -252.94,-30.79 -364.54,-71.35 -253.07,-84.2 -416.72,-211.01 -487.8,-378.9 -72.65,-167.87 -77.77,-335.9 -18.5,-504.1 59.27,-169.76 173.55,-322.39 344.4,-462.59 170.84,-140.2 374.81,-227.07 611.89,-260.64 34.58,12.48 84.87,20.22 152.39,21.62 67.54,2.98 142.93,2.79 226.16,-0.55 73.07,-309.59 135.13,-620.71 187.76,-936.51 52.64,-314.24 114.71,-626.94 183.05,-938.08 69.92,-312.71 152.41,-619.17 249.05,-924.1 96.64,-303.36 221.55,-602.07 374.75,-896.13 232.96,-435.62 546.22,-783.48 939.81,-1040.44 395.16,-258.54 842.4,-411.97 1344.86,-460.31 342.33,-22.82 625.14,23.6 850.01,139.28 223.3,115.68 398.01,270.73 519.43,468.34 122.98,196.02 191.05,417.3 204.22,665.42 14.74,246.54 -16.08,491.63 -87.73,736.81z"/>
  <path id="1" class="fil3 str1" d="M6779.16 2890.69c-101.29,328.5 -248.3,583.29 -439.47,764.38 -191.17,182.64 -393.47,304.07 -605.35,365.84 -211.87,61.77 -416.05,63.83 -612.51,6.2 -196.46,-56.06 -350.65,-167.19 -459.41,-330.27 111.24,-113.35 212.93,-275.37 301.94,-487.61 89,-213.82 167.02,-426.03 232.46,-638.21 42.04,-147.74 76.24,-297.03 104.15,-443.16 29.48,-146.13 46.44,-279.68 50.86,-399.05 4.42,-119.37 1.03,-221.46 -13.31,-309.37 -14.35,-86.34 -42.75,-144.39 -88.37,-174.12 -56.62,-28.13 -110.01,-26.43 -161.77,3.54 -51.75,29.97 -100.32,80.35 -147.26,154.28 -46.94,72.36 -90.7,158.85 -131.3,256.32 -42.16,97.48 -79.61,201.23 -115.46,311.26 -124.81,344.26 -233.87,707.33 -327.18,1087.62 -93.31,380.31 -186.67,741.77 -280.07,1082.81 -91.82,342.61 -193.17,650.68 -305.58,925.81 -110.84,275.12 -250.13,479.63 -414.71,615.1 -153.76,63.2 -312.14,168.81 -475.11,315.28 -4.68,14.15 -9.35,29.86 -15.59,47.14 -6.25,17.3 -10.92,31.44 -14.03,45.59 75.23,-66.16 155.2,-119.75 236.76,-162.34 80,-41.04 180.39,-89.97 296.48,-145.22 112.96,-48.97 247.97,-77.56 404.99,-90.51 157.03,-11.37 318.78,-18.06 482.11,-18.45 163.34,-0.4 320.39,-2.35 474.31,-2.73 153.91,-1.94 285.8,-14.82 395.69,-35.51 153.83,-31.78 295.07,-82.39 420.54,-156.51 127.04,-72.56 244.63,-156.08 354.34,-247.44 19.14,124.03 25.76,257.51 21.39,398.88 -2.8,141.35 -22.86,284.33 -58.65,428.91 -35.76,144.58 -88.83,282.92 -162.32,416.6 -71.93,132.11 -172.15,253.28 -297.54,360.38 -89.35,69.32 -186.57,130.81 -294.81,184.48 -108.24,52.1 -229.07,96.36 -364.06,129.67 -144.39,41.18 -298.27,58.84 -460.05,52.95 -160.22,-7.46 -328.3,-16.47 -499.51,-30.19 -172.8,-13.71 -350.3,-24.28 -534.07,-28.54 -183.77,-5.84 -367.49,10.31 -552.72,46.88 -108.05,130.63 -230.3,236.15 -363.6,318.15 -134.88,80.42 -271.37,138.87 -407.92,176.9 -136.55,36.45 -271.58,50.92 -403.52,46.52 -131.94,-5.96 -252.94,-30.79 -364.54,-71.35 -253.07,-84.2 -416.72,-211.01 -487.8,-378.9 -72.65,-167.87 -77.77,-335.9 -18.5,-504.1 59.27,-169.76 173.55,-322.39 344.4,-462.59 170.84,-140.2 374.81,-227.07 611.89,-260.64 34.58,12.48 84.87,20.22 152.39,21.62 67.54,2.98 142.93,2.79 226.16,-0.55 73.07,-309.59 135.13,-620.71 187.76,-936.51 52.64,-314.24 114.71,-626.94 183.05,-938.08 69.92,-312.71 152.41,-619.17 249.05,-924.1 96.64,-303.36 221.55,-602.07 374.75,-896.13 232.96,-435.62 546.22,-783.48 939.81,-1040.44 395.16,-258.54 842.4,-411.97 1344.86,-460.31 342.33,-22.82 625.14,23.6 850.01,139.28 223.3,115.68 398.01,270.73 519.43,468.34 122.98,196.02 191.05,417.3 204.22,665.42 14.74,246.54 -16.08,491.63 -87.73,736.81z"/>
 </g>
</svg>
